<?xml version="1.0" encoding="iso-8859-1"?>
<!-- Generator: Adobe Illustrator 19.0.0, SVG Export Plug-In . SVG Version: 6.00 Build 0)  -->
<svg version="1.1" id="Layer_1" xmlns="http://www.w3.org/2000/svg" xmlns:xlink="http://www.w3.org/1999/xlink" x="0px" y="0px"
	 viewBox="0 0 455 455" style="enable-background:new 0 0 455 455;" xml:space="preserve">
<g>
	<polygon style="fill:#46F8FF;" points="285.784,111.716 285.784,0 227.5,0 227.5,277.5 397.5,277.5 397.5,111.716 	"/>
	<rect x="57.5" style="fill:#9BFBFF;" width="170" height="277.5"/>
	<path style="fill:#FFDA44;" d="M215.979,372.01v26.19h-14.76v-63.9h14.76v24.75H227.5V277.5h-170V455h170v-82.99H215.979z
		 M187.316,364c-0.99,2.58-2.371,4.891-4.141,6.93c-1.771,2.041-3.915,3.661-6.435,4.86c-2.521,1.201-5.311,1.8-8.37,1.8h-12.96
		v20.61h-14.76v-63.9h27.27c3.061,0,5.864,0.63,8.415,1.891c2.55,1.26,4.739,2.91,6.57,4.949c1.829,2.041,3.27,4.352,4.319,6.931
		c1.05,2.58,1.575,5.19,1.575,7.83C188.801,358.721,188.306,361.421,187.316,364z"/>
	<path style="fill:#FFDA44;" d="M171.701,349.33c-0.661-0.72-1.41-1.245-2.25-1.575c-0.841-0.329-1.681-0.495-2.521-0.495h-11.52
		v17.46h12.06c1.74,0,3.24-0.749,4.5-2.25c1.261-1.499,1.891-3.689,1.891-6.569c0-1.499-0.195-2.79-0.585-3.87
		C172.885,350.95,172.36,350.05,171.701,349.33z"/>
	<path style="fill:#FFCD00;" d="M304.271,362.47c1.26-1.499,1.89-3.689,1.89-6.569c0-1.499-0.195-2.79-0.585-3.87
		c-0.391-1.08-0.916-1.98-1.575-2.7c-0.661-0.72-1.41-1.245-2.25-1.575c-0.841-0.329-1.681-0.495-2.52-0.495H287.71v17.46h12.061
		C301.51,364.72,303.01,363.971,304.271,362.47z"/>
	<path style="fill:#FFCD00;" d="M227.5,359.05h13.95V334.3h14.76v63.9h-14.76v-26.19H227.5V455h170V277.5h-170V359.05z
		 M272.95,334.3h27.27c3.061,0,5.864,0.63,8.415,1.891c2.55,1.26,4.739,2.91,6.57,4.949c1.829,2.041,3.27,4.352,4.32,6.931
		c1.049,2.58,1.574,5.19,1.574,7.83c0,2.82-0.494,5.521-1.484,8.1c-0.99,2.58-2.371,4.891-4.141,6.93
		c-1.77,2.041-3.914,3.661-6.435,4.86c-2.52,1.201-5.31,1.8-8.37,1.8h-12.96v20.61h-14.76V334.3z"/>
	<polygon style="fill:#00D7DF;" points="397.5,111.716 285.784,0 285.784,111.716 	"/>
	<path style="fill:#005ECE;" d="M182.906,341.14c-1.831-2.039-4.021-3.689-6.57-4.949c-2.551-1.261-5.354-1.891-8.415-1.891h-27.27
		v63.9h14.76v-20.61h12.96c3.06,0,5.85-0.599,8.37-1.8c2.52-1.199,4.664-2.819,6.435-4.86c1.77-2.039,3.15-4.35,4.141-6.93
		c0.989-2.579,1.484-5.279,1.484-8.1c0-2.64-0.525-5.25-1.575-7.83C186.176,345.491,184.735,343.181,182.906,341.14z
		 M171.971,362.47c-1.26,1.501-2.76,2.25-4.5,2.25h-12.06v-17.46h11.52c0.84,0,1.68,0.166,2.521,0.495
		c0.84,0.33,1.589,0.855,2.25,1.575c0.659,0.72,1.184,1.62,1.575,2.7c0.39,1.08,0.585,2.371,0.585,3.87
		C173.861,358.78,173.231,360.971,171.971,362.47z"/>
	<polygon style="fill:#005ECE;" points="215.979,334.3 201.22,334.3 201.22,398.2 215.979,398.2 215.979,372.01 241.45,372.01 
		241.45,398.2 256.21,398.2 256.21,334.3 241.45,334.3 241.45,359.05 215.979,359.05 	"/>
	<path style="fill:#005ECE;" d="M287.71,377.59h12.96c3.061,0,5.851-0.599,8.37-1.8c2.521-1.199,4.665-2.819,6.435-4.86
		c1.77-2.039,3.15-4.35,4.141-6.93c0.99-2.579,1.484-5.279,1.484-8.1c0-2.64-0.525-5.25-1.574-7.83
		c-1.051-2.579-2.491-4.89-4.32-6.931c-1.831-2.039-4.021-3.689-6.57-4.949c-2.551-1.261-5.354-1.891-8.415-1.891h-27.27v63.9h14.76
		V377.59z M287.71,347.26h11.521c0.839,0,1.679,0.166,2.52,0.495c0.84,0.33,1.589,0.855,2.25,1.575c0.659,0.72,1.185,1.62,1.575,2.7
		c0.39,1.08,0.585,2.371,0.585,3.87c0,2.88-0.63,5.07-1.89,6.569c-1.261,1.501-2.761,2.25-4.5,2.25H287.71V347.26z"/>
</g>
<g>
</g>
<g>
</g>
<g>
</g>
<g>
</g>
<g>
</g>
<g>
</g>
<g>
</g>
<g>
</g>
<g>
</g>
<g>
</g>
<g>
</g>
<g>
</g>
<g>
</g>
<g>
</g>
<g>
</g>
</svg>
